<svg width="59" height="39" viewBox="0 0 59 39" fill="none" xmlns="http://www.w3.org/2000/svg">
<path d="M25.261 31.077C24.8737 31.077 24.5073 31.028 24.162 30.93C23.8213 30.832 23.5367 30.699 23.308 30.531L23.623 29.677C23.8423 29.831 24.092 29.9523 24.372 30.041C24.6567 30.1297 24.953 30.174 25.261 30.174C25.597 30.174 25.8373 30.1227 25.982 30.02C26.1313 29.9127 26.206 29.7797 26.206 29.621C26.206 29.4857 26.1547 29.3783 26.052 29.299C25.9493 29.2197 25.7697 29.152 25.513 29.096L24.722 28.928C23.84 28.7413 23.399 28.284 23.399 27.556C23.399 27.2433 23.483 26.9703 23.651 26.737C23.819 26.499 24.0523 26.3147 24.351 26.184C24.6543 26.0533 25.0043 25.988 25.401 25.988C25.7417 25.988 26.0613 26.037 26.36 26.135C26.6587 26.233 26.906 26.3707 27.102 26.548L26.787 27.346C26.4043 27.0427 25.94 26.891 25.394 26.891C25.1 26.891 24.8713 26.9493 24.708 27.066C24.5493 27.178 24.47 27.325 24.47 27.507C24.47 27.6423 24.519 27.752 24.617 27.836C24.715 27.92 24.8853 27.9877 25.128 28.039L25.919 28.207C26.8243 28.403 27.277 28.8463 27.277 29.537C27.277 29.845 27.193 30.1157 27.025 30.349C26.8617 30.5777 26.6283 30.7573 26.325 30.888C26.0263 31.014 25.6717 31.077 25.261 31.077ZM30.3428 31V26.961H28.7118V26.065H33.0588V26.961H31.4278V31H30.3428ZM36.8727 31.077C36.3874 31.077 35.9604 30.972 35.5917 30.762C35.2277 30.5473 34.9431 30.251 34.7377 29.873C34.5371 29.4903 34.4367 29.0423 34.4367 28.529C34.4367 28.0157 34.5371 27.57 34.7377 27.192C34.9431 26.8093 35.2277 26.513 35.5917 26.303C35.9557 26.093 36.3827 25.988 36.8727 25.988C37.3627 25.988 37.7897 26.093 38.1537 26.303C38.5224 26.513 38.8071 26.8093 39.0077 27.192C39.2131 27.57 39.3157 28.0133 39.3157 28.522C39.3157 29.0353 39.2131 29.4833 39.0077 29.866C38.8071 30.2487 38.5224 30.5473 38.1537 30.762C37.7897 30.972 37.3627 31.077 36.8727 31.077ZM36.8727 30.153C37.2834 30.153 37.6031 30.0107 37.8317 29.726C38.0651 29.4367 38.1817 29.0377 38.1817 28.529C38.1817 28.0157 38.0674 27.619 37.8387 27.339C37.6101 27.0543 37.2881 26.912 36.8727 26.912C36.4667 26.912 36.1471 27.0543 35.9137 27.339C35.6851 27.619 35.5707 28.0157 35.5707 28.529C35.5707 29.0377 35.6851 29.4367 35.9137 29.726C36.1471 30.0107 36.4667 30.153 36.8727 30.153ZM41.443 31V26.065H43.697C44.2477 26.065 44.6724 26.198 44.971 26.464C45.2697 26.73 45.419 27.101 45.419 27.577C45.419 27.9457 45.3234 28.2537 45.132 28.501C44.9454 28.7437 44.677 28.9093 44.327 28.998C44.5744 29.0727 44.7774 29.2523 44.936 29.537L45.734 31H44.537L43.683 29.425C43.613 29.299 43.5267 29.2127 43.424 29.166C43.3214 29.1147 43.2 29.089 43.06 29.089H42.528V31H41.443ZM42.528 28.305H43.501C44.0844 28.305 44.376 28.0717 44.376 27.605C44.376 27.143 44.0844 26.912 43.501 26.912H42.528V28.305ZM47.6051 31V26.065H50.9861V26.912H48.6411V28.067H50.8321V28.921H48.6411V30.153H50.9861V31H47.6051Z" fill="white"/>
<path d="M29.2117 16.8756V15.4656H30.1777V15.7076H29.5077V16.0376H30.1337V16.2816H29.5077V16.6336H30.1777V16.8756H29.2117ZM31.4746 16.8976C31.3226 16.8976 31.1926 16.8676 31.0846 16.8076C30.9766 16.7476 30.8933 16.6636 30.8346 16.5556C30.7773 16.4463 30.7486 16.3176 30.7486 16.1696C30.7486 16.0229 30.7773 15.8956 30.8346 15.7876C30.8933 15.6783 30.9766 15.5936 31.0846 15.5336C31.1926 15.4736 31.3226 15.4436 31.4746 15.4436C31.568 15.4436 31.6573 15.4583 31.7426 15.4876C31.828 15.5169 31.898 15.5569 31.9526 15.6076L31.8566 15.8536C31.7966 15.8069 31.736 15.7729 31.6746 15.7516C31.6146 15.7289 31.5513 15.7176 31.4846 15.7176C31.35 15.7176 31.248 15.7569 31.1786 15.8356C31.1106 15.9129 31.0766 16.0243 31.0766 16.1696C31.0766 16.3149 31.1106 16.4269 31.1786 16.5056C31.248 16.5843 31.35 16.6236 31.4846 16.6236C31.5513 16.6236 31.6146 16.6129 31.6746 16.5916C31.736 16.5689 31.7966 16.5343 31.8566 16.4876L31.9526 16.7336C31.898 16.7829 31.828 16.8229 31.7426 16.8536C31.6573 16.8829 31.568 16.8976 31.4746 16.8976ZM33.159 16.8976C33.007 16.8976 32.877 16.8676 32.769 16.8076C32.661 16.7476 32.5777 16.6636 32.519 16.5556C32.4617 16.4463 32.433 16.3176 32.433 16.1696C32.433 16.0229 32.4617 15.8956 32.519 15.7876C32.5777 15.6783 32.661 15.5936 32.769 15.5336C32.877 15.4736 33.007 15.4436 33.159 15.4436C33.2524 15.4436 33.3417 15.4583 33.427 15.4876C33.5124 15.5169 33.5824 15.5569 33.637 15.6076L33.541 15.8536C33.481 15.8069 33.4204 15.7729 33.359 15.7516C33.299 15.7289 33.2357 15.7176 33.169 15.7176C33.0344 15.7176 32.9324 15.7569 32.863 15.8356C32.795 15.9129 32.761 16.0243 32.761 16.1696C32.761 16.3149 32.795 16.4269 32.863 16.5056C32.9324 16.5843 33.0344 16.6236 33.169 16.6236C33.2357 16.6236 33.299 16.6129 33.359 16.5916C33.4204 16.5689 33.481 16.5343 33.541 16.4876L33.637 16.7336C33.5824 16.7829 33.5124 16.8229 33.427 16.8536C33.3417 16.8829 33.2524 16.8976 33.159 16.8976ZM34.8135 16.8976C34.6748 16.8976 34.5528 16.8676 34.4475 16.8076C34.3435 16.7463 34.2621 16.6616 34.2035 16.5536C34.1461 16.4443 34.1175 16.3163 34.1175 16.1696C34.1175 16.0229 34.1461 15.8956 34.2035 15.7876C34.2621 15.6783 34.3435 15.5936 34.4475 15.5336C34.5515 15.4736 34.6735 15.4436 34.8135 15.4436C34.9535 15.4436 35.0755 15.4736 35.1795 15.5336C35.2848 15.5936 35.3661 15.6783 35.4235 15.7876C35.4821 15.8956 35.5115 16.0223 35.5115 16.1676C35.5115 16.3143 35.4821 16.4423 35.4235 16.5516C35.3661 16.6609 35.2848 16.7463 35.1795 16.8076C35.0755 16.8676 34.9535 16.8976 34.8135 16.8976ZM34.8135 16.6336C34.9308 16.6336 35.0221 16.5929 35.0875 16.5116C35.1541 16.4289 35.1875 16.3149 35.1875 16.1696C35.1875 16.0229 35.1548 15.9096 35.0895 15.8296C35.0241 15.7483 34.9321 15.7076 34.8135 15.7076C34.6975 15.7076 34.6061 15.7483 34.5395 15.8296C34.4741 15.9096 34.4415 16.0229 34.4415 16.1696C34.4415 16.3149 34.4741 16.4289 34.5395 16.5116C34.6061 16.5929 34.6975 16.6336 34.8135 16.6336ZM36.1232 16.8756V15.4656H36.3812L36.8572 16.3316L37.3312 15.4656H37.5852V16.8756H37.3032V16.0156L36.9392 16.6636H36.7652L36.4032 16.0216V16.8756H36.1232ZM38.2392 16.8756V15.4656H39.2052V15.7076H38.5352V16.0376H39.1612V16.2816H38.5352V16.6336H39.2052V16.8756H38.2392ZM39.8181 16.8756V15.4656H40.4621C40.6195 15.4656 40.7408 15.5036 40.8261 15.5796C40.9115 15.6556 40.9541 15.7616 40.9541 15.8976C40.9541 16.0029 40.9268 16.0909 40.8721 16.1616C40.8188 16.2309 40.7421 16.2783 40.6421 16.3036C40.7128 16.3249 40.7708 16.3763 40.8161 16.4576L41.0441 16.8756H40.7021L40.4581 16.4256C40.4381 16.3896 40.4135 16.3649 40.3841 16.3516C40.3548 16.3369 40.3201 16.3296 40.2801 16.3296H40.1281V16.8756H39.8181ZM40.1281 16.1056H40.4061C40.5728 16.1056 40.6561 16.0389 40.6561 15.9056C40.6561 15.7736 40.5728 15.7076 40.4061 15.7076H40.1281V16.1056ZM42.253 16.8976C42.101 16.8976 41.971 16.8676 41.863 16.8076C41.755 16.7476 41.6716 16.6636 41.613 16.5556C41.5556 16.4463 41.527 16.3176 41.527 16.1696C41.527 16.0229 41.5556 15.8956 41.613 15.7876C41.6716 15.6783 41.755 15.5936 41.863 15.5336C41.971 15.4736 42.101 15.4436 42.253 15.4436C42.3463 15.4436 42.4356 15.4583 42.521 15.4876C42.6063 15.5169 42.6763 15.5569 42.731 15.6076L42.635 15.8536C42.575 15.8069 42.5143 15.7729 42.453 15.7516C42.393 15.7289 42.3296 15.7176 42.263 15.7176C42.1283 15.7176 42.0263 15.7569 41.957 15.8356C41.889 15.9129 41.855 16.0243 41.855 16.1696C41.855 16.3149 41.889 16.4269 41.957 16.5056C42.0263 16.5843 42.1283 16.6236 42.263 16.6236C42.3296 16.6236 42.393 16.6129 42.453 16.5916C42.5143 16.5689 42.575 16.5343 42.635 16.4876L42.731 16.7336C42.6763 16.7829 42.6063 16.8229 42.521 16.8536C42.4356 16.8829 42.3463 16.8976 42.253 16.8976ZM43.3022 16.8756V15.4656H44.2682V15.7076H43.5982V16.0376H44.2242V16.2816H43.5982V16.6336H44.2682V16.8756H43.3022Z" fill="white"/>
<path d="M30.1409 3.3123L33.4409 3.27071L18.9022 30.9051L15.7819 30.9051L30.1409 3.3123Z" fill="white"/>
<path d="M30.1409 3.3123L33.4409 3.27071L18.9022 30.9051L15.7819 30.9051L30.1409 3.3123Z" fill="white"/>
<path d="M46.6968 3.27069L45.2714 6.24873L33.2984 6.24873L34.715 3.37432L46.6968 3.27069Z" fill="white"/>
<path d="M46.6968 3.27069L45.2714 6.24873L33.2984 6.24873L34.715 3.37432L46.6968 3.27069Z" fill="white"/>
<path d="M43.8459 9.12292L42.4206 12.101L30.4476 12.101L31.8642 9.22656L43.8459 9.12292Z" fill="white"/>
<path d="M43.8459 9.12292L42.4206 12.101L30.4476 12.101L31.8642 9.22656L43.8459 9.12292Z" fill="white"/>
<path d="M24.1759 3.69614L27.3117 3.69615L25.8863 6.67419L22.7505 6.6742L24.1759 3.69614Z" fill="white"/>
<path d="M24.1759 3.69614L27.3117 3.69615L25.8863 6.67419L22.7505 6.6742L24.1759 3.69614Z" fill="white"/>
<path d="M23.0356 3.69617L21.7465 6.67749L10.9442 6.70566L12.2334 3.72434L23.0356 3.69617Z" fill="white"/>
<path d="M23.0356 3.69617L21.7465 6.67749L10.9442 6.70566L12.2334 3.72434L23.0356 3.69617Z" fill="white"/>
<path d="M22.1804 8.02506L25.2142 8.02507L13.2006 30.924L10.2073 30.9239L22.1804 8.02506Z" fill="white"/>
<path d="M22.1804 8.02506L25.2142 8.02507L13.2006 30.924L10.2073 30.9239L22.1804 8.02506Z" fill="white"/>
<path d="M14.2072 27.8423L12.7731 30.924L0.800039 30.8579L2.2254 27.8814L14.2072 27.8423Z" fill="white"/>
<path d="M14.2072 27.8423L12.7731 30.924L0.800039 30.8579L2.2254 27.8814L14.2072 27.8423Z" fill="white"/>
</svg>
