<svg width="210" height="85" viewBox="0 0 210 85" fill="none" xmlns="http://www.w3.org/2000/svg">
<path d="M92.075 69.8504C90.6917 69.8504 89.3833 69.6754 88.15 69.3254C86.9333 68.9754 85.9167 68.5004 85.1 67.9004L86.225 64.8504C87.0083 65.4004 87.9 65.8337 88.9 66.1504C89.9167 66.467 90.975 66.6254 92.075 66.6254C93.275 66.6254 94.1333 66.442 94.65 66.0754C95.1833 65.692 95.45 65.217 95.45 64.6504C95.45 64.167 95.2667 63.7837 94.9 63.5004C94.5333 63.217 93.8917 62.9754 92.975 62.7754L90.15 62.1754C87 61.5087 85.425 59.8754 85.425 57.2754C85.425 56.1587 85.725 55.1837 86.325 54.3504C86.925 53.5004 87.7583 52.842 88.825 52.3754C89.9083 51.9087 91.1583 51.6754 92.575 51.6754C93.7917 51.6754 94.9333 51.8504 96 52.2004C97.0667 52.5504 97.95 53.042 98.65 53.6754L97.525 56.5254C96.1583 55.442 94.5 54.9004 92.55 54.9004C91.5 54.9004 90.6833 55.1087 90.1 55.5254C89.5333 55.9254 89.25 56.4504 89.25 57.1004C89.25 57.5837 89.425 57.9754 89.775 58.2754C90.125 58.5754 90.7333 58.817 91.6 59.0004L94.425 59.6004C97.6583 60.3004 99.275 61.8837 99.275 64.3504C99.275 65.4504 98.975 66.417 98.375 67.2504C97.7917 68.067 96.9583 68.7087 95.875 69.1754C94.8083 69.6254 93.5417 69.8504 92.075 69.8504ZM110.224 69.5754V55.1504H104.399V51.9504H119.924V55.1504H114.099V69.5754H110.224ZM133.546 69.8504C131.812 69.8504 130.287 69.4754 128.971 68.7254C127.671 67.9587 126.654 66.9004 125.921 65.5504C125.204 64.1837 124.846 62.5837 124.846 60.7504C124.846 58.917 125.204 57.3254 125.921 55.9754C126.654 54.6087 127.671 53.5504 128.971 52.8004C130.271 52.0504 131.796 51.6754 133.546 51.6754C135.296 51.6754 136.821 52.0504 138.121 52.8004C139.437 53.5504 140.454 54.6087 141.171 55.9754C141.904 57.3254 142.271 58.9087 142.271 60.7254C142.271 62.5587 141.904 64.1587 141.171 65.5254C140.454 66.892 139.437 67.9587 138.121 68.7254C136.821 69.4754 135.296 69.8504 133.546 69.8504ZM133.546 66.5504C135.012 66.5504 136.154 66.042 136.971 65.0254C137.804 63.992 138.221 62.567 138.221 60.7504C138.221 58.917 137.812 57.5004 136.996 56.5004C136.179 55.4837 135.029 54.9754 133.546 54.9754C132.096 54.9754 130.954 55.4837 130.121 56.5004C129.304 57.5004 128.896 58.917 128.896 60.7504C128.896 62.567 129.304 63.992 130.121 65.0254C130.954 66.042 132.096 66.5504 133.546 66.5504ZM149.868 69.5754V51.9504H157.918C159.885 51.9504 161.401 52.4254 162.468 53.3754C163.535 54.3254 164.068 55.6504 164.068 57.3504C164.068 58.667 163.726 59.767 163.043 60.6504C162.376 61.517 161.418 62.1087 160.168 62.4254C161.051 62.692 161.776 63.3337 162.343 64.3504L165.193 69.5754H160.918L157.868 63.9504C157.618 63.5004 157.31 63.192 156.943 63.0254C156.576 62.842 156.143 62.7504 155.643 62.7504H153.743V69.5754H149.868ZM153.743 59.9504H157.218C159.301 59.9504 160.343 59.117 160.343 57.4504C160.343 55.8004 159.301 54.9754 157.218 54.9754H153.743V59.9504ZM171.875 69.5754V51.9504H183.95V54.9754H175.575V59.1004H183.4V62.1504H175.575V66.5504H183.95V69.5754H171.875Z" fill="white"/>
<path d="M98.3834 38.5754V34.7684H100.992V35.4218H99.1826V36.3128H100.873V36.9716H99.1826V37.922H100.992V38.5754H98.3834ZM104.493 38.6348C104.083 38.6348 103.732 38.5538 103.44 38.3918C103.149 38.2298 102.924 38.003 102.765 37.7114C102.611 37.4162 102.533 37.0688 102.533 36.6692C102.533 36.2732 102.611 35.9294 102.765 35.6378C102.924 35.3426 103.149 35.114 103.44 34.952C103.732 34.79 104.083 34.709 104.493 34.709C104.745 34.709 104.987 34.7486 105.217 34.8278C105.447 34.907 105.636 35.015 105.784 35.1518L105.525 35.816C105.363 35.69 105.199 35.5982 105.033 35.5406C104.871 35.4794 104.7 35.4488 104.52 35.4488C104.157 35.4488 103.881 35.555 103.694 35.7674C103.511 35.9762 103.419 36.2768 103.419 36.6692C103.419 37.0616 103.511 37.364 103.694 37.5764C103.881 37.7888 104.157 37.895 104.52 37.895C104.7 37.895 104.871 37.8662 105.033 37.8086C105.199 37.7474 105.363 37.6538 105.525 37.5278L105.784 38.192C105.636 38.3252 105.447 38.4332 105.217 38.516C104.987 38.5952 104.745 38.6348 104.493 38.6348ZM109.041 38.6348C108.631 38.6348 108.28 38.5538 107.988 38.3918C107.697 38.2298 107.472 38.003 107.313 37.7114C107.158 37.4162 107.081 37.0688 107.081 36.6692C107.081 36.2732 107.158 35.9294 107.313 35.6378C107.472 35.3426 107.697 35.114 107.988 34.952C108.28 34.79 108.631 34.709 109.041 34.709C109.293 34.709 109.534 34.7486 109.765 34.8278C109.995 34.907 110.184 35.015 110.332 35.1518L110.073 35.816C109.911 35.69 109.747 35.5982 109.581 35.5406C109.419 35.4794 109.248 35.4488 109.068 35.4488C108.705 35.4488 108.429 35.555 108.242 35.7674C108.058 35.9762 107.967 36.2768 107.967 36.6692C107.967 37.0616 108.058 37.364 108.242 37.5764C108.429 37.7888 108.705 37.895 109.068 37.895C109.248 37.895 109.419 37.8662 109.581 37.8086C109.747 37.7474 109.911 37.6538 110.073 37.5278L110.332 38.192C110.184 38.3252 109.995 38.4332 109.765 38.516C109.534 38.5952 109.293 38.6348 109.041 38.6348ZM113.508 38.6348C113.134 38.6348 112.804 38.5538 112.52 38.3918C112.239 38.2262 112.02 37.9976 111.861 37.706C111.706 37.4108 111.629 37.0652 111.629 36.6692C111.629 36.2732 111.706 35.9294 111.861 35.6378C112.02 35.3426 112.239 35.114 112.52 34.952C112.801 34.79 113.13 34.709 113.508 34.709C113.886 34.709 114.216 34.79 114.496 34.952C114.781 35.114 115 35.3426 115.155 35.6378C115.314 35.9294 115.393 36.2714 115.393 36.6638C115.393 37.0598 115.314 37.4054 115.155 37.7006C115 37.9958 114.781 38.2262 114.496 38.3918C114.216 38.5538 113.886 38.6348 113.508 38.6348ZM113.508 37.922C113.825 37.922 114.072 37.8122 114.248 37.5926C114.428 37.3694 114.518 37.0616 114.518 36.6692C114.518 36.2732 114.43 35.9672 114.253 35.7512C114.077 35.5316 113.829 35.4218 113.508 35.4218C113.195 35.4218 112.948 35.5316 112.768 35.7512C112.592 35.9672 112.504 36.2732 112.504 36.6692C112.504 37.0616 112.592 37.3694 112.768 37.5926C112.948 37.8122 113.195 37.922 113.508 37.922ZM117.045 38.5754V34.7684H117.741L119.026 37.1066L120.306 34.7684H120.992V38.5754H120.231V36.2534L119.248 38.003H118.778L117.801 36.2696V38.5754H117.045ZM122.758 38.5754V34.7684H125.366V35.4218H123.557V36.3128H125.247V36.9716H123.557V37.922H125.366V38.5754H122.758ZM127.021 38.5754V34.7684H128.76C129.184 34.7684 129.512 34.871 129.742 35.0762C129.973 35.2814 130.088 35.5676 130.088 35.9348C130.088 36.2192 130.014 36.4568 129.867 36.6476C129.723 36.8348 129.516 36.9626 129.246 37.031C129.436 37.0886 129.593 37.2272 129.715 37.4468L130.331 38.5754H129.408L128.749 37.3604C128.695 37.2632 128.628 37.1966 128.549 37.1606C128.47 37.121 128.376 37.1012 128.268 37.1012H127.858V38.5754H127.021ZM127.858 36.4964H128.608C129.058 36.4964 129.283 36.3164 129.283 35.9564C129.283 35.6 129.058 35.4218 128.608 35.4218H127.858V36.4964ZM133.595 38.6348C133.184 38.6348 132.833 38.5538 132.542 38.3918C132.25 38.2298 132.025 38.003 131.867 37.7114C131.712 37.4162 131.635 37.0688 131.635 36.6692C131.635 36.2732 131.712 35.9294 131.867 35.6378C132.025 35.3426 132.25 35.114 132.542 34.952C132.833 34.79 133.184 34.709 133.595 34.709C133.847 34.709 134.088 34.7486 134.318 34.8278C134.549 34.907 134.738 35.015 134.885 35.1518L134.626 35.816C134.464 35.69 134.3 35.5982 134.135 35.5406C133.973 35.4794 133.802 35.4488 133.622 35.4488C133.258 35.4488 132.983 35.555 132.796 35.7674C132.612 35.9762 132.52 36.2768 132.52 36.6692C132.52 37.0616 132.612 37.364 132.796 37.5764C132.983 37.7888 133.258 37.895 133.622 37.895C133.802 37.895 133.973 37.8662 134.135 37.8086C134.3 37.7474 134.464 37.6538 134.626 37.5278L134.885 38.192C134.738 38.3252 134.549 38.4332 134.318 38.516C134.088 38.5952 133.847 38.6348 133.595 38.6348ZM136.428 38.5754V34.7684H139.036V35.4218H137.227V36.3128H138.917V36.9716H137.227V37.922H139.036V38.5754H136.428Z" fill="white"/>
<path d="M102.924 5.67316L114.5 5.5754L63.5 70.5311L52.5544 70.5311L102.924 5.67316Z" fill="white"/>
<path d="M102.924 5.67316L114.5 5.5754L63.5 70.5311L52.5544 70.5311L102.924 5.67316Z" fill="white"/>
<path d="M161 5.57538L156 12.5754L114 12.5754L118.969 5.81897L161 5.57538Z" fill="white"/>
<path d="M161 5.57538L156 12.5754L114 12.5754L118.969 5.81897L161 5.57538Z" fill="white"/>
<path d="M151 19.3313L146 26.3313L104 26.3313L108.969 19.5749L151 19.3313Z" fill="white"/>
<path d="M151 19.3313L146 26.3313L104 26.3313L108.969 19.5749L151 19.3313Z" fill="white"/>
<path d="M82 6.57542L93 6.57543L88 13.5754L77 13.5754L82 6.57542Z" fill="white"/>
<path d="M82 6.57542L93 6.57543L88 13.5754L77 13.5754L82 6.57542Z" fill="white"/>
<path d="M78 6.57544L73.4779 13.5831L35.5847 13.6494L40.1068 6.64167L78 6.57544Z" fill="white"/>
<path d="M78 6.57544L73.4779 13.5831L35.5847 13.6494L40.1068 6.64167L78 6.57544Z" fill="white"/>
<path d="M75 16.7508L85.6422 16.7508L43.5 70.5755L33 70.5754L75 16.7508Z" fill="white"/>
<path d="M75 16.7508L85.6422 16.7508L43.5 70.5755L33 70.5754L75 16.7508Z" fill="white"/>
<path d="M47.0306 63.3318L42 70.5755L1.29201e-06 70.4201L5.00001 63.4237L47.0306 63.3318Z" fill="white"/>
<path d="M47.0306 63.3318L42 70.5755L1.29201e-06 70.4201L5.00001 63.4237L47.0306 63.3318Z" fill="white"/>
</svg>
