<svg width="107" height="63" viewBox="0 0 107 63" fill="none" xmlns="http://www.w3.org/2000/svg">
<path d="M46.845 51.165C46.015 51.165 45.23 51.06 44.49 50.85C43.76 50.64 43.15 50.355 42.66 49.995L43.335 48.165C43.805 48.495 44.34 48.755 44.94 48.945C45.55 49.135 46.185 49.23 46.845 49.23C47.565 49.23 48.08 49.12 48.39 48.9C48.71 48.67 48.87 48.385 48.87 48.045C48.87 47.755 48.76 47.525 48.54 47.355C48.32 47.185 47.935 47.04 47.385 46.92L45.69 46.56C43.8 46.16 42.855 45.18 42.855 43.62C42.855 42.95 43.035 42.365 43.395 41.865C43.755 41.355 44.255 40.96 44.895 40.68C45.545 40.4 46.295 40.26 47.145 40.26C47.875 40.26 48.56 40.365 49.2 40.575C49.84 40.785 50.37 41.08 50.79 41.46L50.115 43.17C49.295 42.52 48.3 42.195 47.13 42.195C46.5 42.195 46.01 42.32 45.66 42.57C45.32 42.81 45.15 43.125 45.15 43.515C45.15 43.805 45.255 44.04 45.465 44.22C45.675 44.4 46.04 44.545 46.56 44.655L48.255 45.015C50.195 45.435 51.165 46.385 51.165 47.865C51.165 48.525 50.985 49.105 50.625 49.605C50.275 50.095 49.775 50.48 49.125 50.76C48.485 51.03 47.725 51.165 46.845 51.165ZM57.7346 51V42.345H54.2396V40.425H63.5546V42.345H60.0596V51H57.7346ZM71.7273 51.165C70.6873 51.165 69.7723 50.94 68.9823 50.49C68.2023 50.03 67.5923 49.395 67.1523 48.585C66.7223 47.765 66.5073 46.805 66.5073 45.705C66.5073 44.605 66.7223 43.65 67.1523 42.84C67.5923 42.02 68.2023 41.385 68.9823 40.935C69.7623 40.485 70.6773 40.26 71.7273 40.26C72.7773 40.26 73.6923 40.485 74.4723 40.935C75.2623 41.385 75.8723 42.02 76.3023 42.84C76.7423 43.65 76.9623 44.6 76.9623 45.69C76.9623 46.79 76.7423 47.75 76.3023 48.57C75.8723 49.39 75.2623 50.03 74.4723 50.49C73.6923 50.94 72.7773 51.165 71.7273 51.165ZM71.7273 49.185C72.6073 49.185 73.2923 48.88 73.7823 48.27C74.2823 47.65 74.5323 46.795 74.5323 45.705C74.5323 44.605 74.2873 43.755 73.7973 43.155C73.3073 42.545 72.6173 42.24 71.7273 42.24C70.8573 42.24 70.1723 42.545 69.6723 43.155C69.1823 43.755 68.9373 44.605 68.9373 45.705C68.9373 46.795 69.1823 47.65 69.6723 48.27C70.1723 48.88 70.8573 49.185 71.7273 49.185ZM81.5208 51V40.425H86.3508C87.5308 40.425 88.4408 40.71 89.0808 41.28C89.7208 41.85 90.0408 42.645 90.0408 43.665C90.0408 44.455 89.8358 45.115 89.4258 45.645C89.0258 46.165 88.4508 46.52 87.7008 46.71C88.2308 46.87 88.6658 47.255 89.0058 47.865L90.7158 51H88.1508L86.3208 47.625C86.1708 47.355 85.9858 47.17 85.7658 47.07C85.5458 46.96 85.2858 46.905 84.9858 46.905H83.8458V51H81.5208ZM83.8458 45.225H85.9308C87.1808 45.225 87.8058 44.725 87.8058 43.725C87.8058 42.735 87.1808 42.24 85.9308 42.24H83.8458V45.225ZM94.7251 51V40.425H101.97V42.24H96.9451V44.715H101.64V46.545H96.9451V49.185H101.97V51H94.7251Z" fill="white"/>
<path d="M51.1704 26V24.308H52.3296V24.5984H51.5256V24.9944H52.2768V25.2872H51.5256V25.7096H52.3296V26H51.1704ZM53.8859 26.0264C53.7035 26.0264 53.5475 25.9904 53.4179 25.9184C53.2883 25.8464 53.1883 25.7456 53.1179 25.616C53.0491 25.4848 53.0147 25.3304 53.0147 25.1528C53.0147 24.9768 53.0491 24.824 53.1179 24.6944C53.1883 24.5632 53.2883 24.4616 53.4179 24.3896C53.5475 24.3176 53.7035 24.2816 53.8859 24.2816C53.9979 24.2816 54.1051 24.2992 54.2075 24.3344C54.3099 24.3696 54.3939 24.4176 54.4595 24.4784L54.3443 24.7736C54.2723 24.7176 54.1995 24.6768 54.1259 24.6512C54.0539 24.624 53.9779 24.6104 53.8979 24.6104C53.7363 24.6104 53.6139 24.6576 53.5307 24.752C53.4491 24.8448 53.4083 24.9784 53.4083 25.1528C53.4083 25.3272 53.4491 25.4616 53.5307 25.556C53.6139 25.6504 53.7363 25.6976 53.8979 25.6976C53.9779 25.6976 54.0539 25.6848 54.1259 25.6592C54.1995 25.632 54.2723 25.5904 54.3443 25.5344L54.4595 25.8296C54.3939 25.8888 54.3099 25.9368 54.2075 25.9736C54.1051 26.0088 53.9979 26.0264 53.8859 26.0264ZM55.9072 26.0264C55.7248 26.0264 55.5688 25.9904 55.4392 25.9184C55.3096 25.8464 55.2096 25.7456 55.1392 25.616C55.0704 25.4848 55.036 25.3304 55.036 25.1528C55.036 24.9768 55.0704 24.824 55.1392 24.6944C55.2096 24.5632 55.3096 24.4616 55.4392 24.3896C55.5688 24.3176 55.7248 24.2816 55.9072 24.2816C56.0192 24.2816 56.1264 24.2992 56.2288 24.3344C56.3312 24.3696 56.4152 24.4176 56.4808 24.4784L56.3656 24.7736C56.2936 24.7176 56.2208 24.6768 56.1472 24.6512C56.0752 24.624 55.9992 24.6104 55.9192 24.6104C55.7576 24.6104 55.6352 24.6576 55.552 24.752C55.4704 24.8448 55.4296 24.9784 55.4296 25.1528C55.4296 25.3272 55.4704 25.4616 55.552 25.556C55.6352 25.6504 55.7576 25.6976 55.9192 25.6976C55.9992 25.6976 56.0752 25.6848 56.1472 25.6592C56.2208 25.632 56.2936 25.5904 56.3656 25.5344L56.4808 25.8296C56.4152 25.8888 56.3312 25.9368 56.2288 25.9736C56.1264 26.0088 56.0192 26.0264 55.9072 26.0264ZM57.8925 26.0264C57.7261 26.0264 57.5797 25.9904 57.4533 25.9184C57.3285 25.8448 57.2309 25.7432 57.1605 25.6136C57.0917 25.4824 57.0573 25.3288 57.0573 25.1528C57.0573 24.9768 57.0917 24.824 57.1605 24.6944C57.2309 24.5632 57.3285 24.4616 57.4533 24.3896C57.5781 24.3176 57.7245 24.2816 57.8925 24.2816C58.0605 24.2816 58.2069 24.3176 58.3317 24.3896C58.4581 24.4616 58.5557 24.5632 58.6245 24.6944C58.6949 24.824 58.7301 24.976 58.7301 25.1504C58.7301 25.3264 58.6949 25.48 58.6245 25.6112C58.5557 25.7424 58.4581 25.8448 58.3317 25.9184C58.2069 25.9904 58.0605 26.0264 57.8925 26.0264ZM57.8925 25.7096C58.0333 25.7096 58.1429 25.6608 58.2213 25.5632C58.3013 25.464 58.3413 25.3272 58.3413 25.1528C58.3413 24.9768 58.3021 24.8408 58.2237 24.7448C58.1453 24.6472 58.0349 24.5984 57.8925 24.5984C57.7533 24.5984 57.6437 24.6472 57.5637 24.7448C57.4853 24.8408 57.4461 24.9768 57.4461 25.1528C57.4461 25.3272 57.4853 25.464 57.5637 25.5632C57.6437 25.6608 57.7533 25.7096 57.8925 25.7096ZM59.4643 26V24.308H59.7739L60.3451 25.3472L60.9139 24.308H61.2187V26H60.8803V24.968L60.4435 25.7456H60.2347L59.8003 24.9752V26H59.4643ZM62.0034 26V24.308H63.1626V24.5984H62.3586V24.9944H63.1098V25.2872H62.3586V25.7096H63.1626V26H62.0034ZM63.8981 26V24.308H64.6709C64.8597 24.308 65.0053 24.3536 65.1077 24.4448C65.2101 24.536 65.2613 24.6632 65.2613 24.8264C65.2613 24.9528 65.2285 25.0584 65.1629 25.1432C65.0989 25.2264 65.0069 25.2832 64.8869 25.3136C64.9717 25.3392 65.0413 25.4008 65.0957 25.4984L65.3693 26H64.9589L64.6661 25.46C64.6421 25.4168 64.6125 25.3872 64.5773 25.3712C64.5421 25.3536 64.5005 25.3448 64.4525 25.3448H64.2701V26H63.8981ZM64.2701 25.076H64.6037C64.8037 25.076 64.9037 24.996 64.9037 24.836C64.9037 24.6776 64.8037 24.5984 64.6037 24.5984H64.2701V25.076ZM66.8199 26.0264C66.6375 26.0264 66.4815 25.9904 66.3519 25.9184C66.2223 25.8464 66.1223 25.7456 66.0519 25.616C65.9831 25.4848 65.9487 25.3304 65.9487 25.1528C65.9487 24.9768 65.9831 24.824 66.0519 24.6944C66.1223 24.5632 66.2223 24.4616 66.3519 24.3896C66.4815 24.3176 66.6375 24.2816 66.8199 24.2816C66.9319 24.2816 67.0391 24.2992 67.1415 24.3344C67.2439 24.3696 67.3279 24.4176 67.3935 24.4784L67.2783 24.7736C67.2063 24.7176 67.1335 24.6768 67.0599 24.6512C66.9879 24.624 66.9119 24.6104 66.8319 24.6104C66.6703 24.6104 66.5479 24.6576 66.4647 24.752C66.3831 24.8448 66.3423 24.9784 66.3423 25.1528C66.3423 25.3272 66.3831 25.4616 66.4647 25.556C66.5479 25.6504 66.6703 25.6976 66.8319 25.6976C66.9119 25.6976 66.9879 25.6848 67.0599 25.6592C67.1335 25.632 67.2063 25.5904 67.2783 25.5344L67.3935 25.8296C67.3279 25.8888 67.2439 25.9368 67.1415 25.9736C67.0391 26.0088 66.9319 26.0264 66.8199 26.0264ZM68.079 26V24.308H69.2382V24.5984H68.4342V24.9944H69.1854V25.2872H68.4342V25.7096H69.2382V26H68.079Z" fill="white"/>
<path d="M52.9323 4.09177L58.8857 4.02126L32.6572 50.8705L27.028 50.8705L52.9323 4.09177Z" fill="white"/>
<path d="M52.9323 4.09177L58.8857 4.02126L32.6572 50.8705L27.028 50.8705L52.9323 4.09177Z" fill="white"/>
<path d="M82.8 4.02124L80.2286 9.06999L58.6286 9.06999L61.1843 4.19693L82.8 4.02124Z" fill="white"/>
<path d="M82.8 4.02124L80.2286 9.06999L58.6286 9.06999L61.1843 4.19693L82.8 4.02124Z" fill="white"/>
<path d="M77.6572 13.9427L75.0857 18.9914L53.4857 18.9914L56.0414 14.1184L77.6572 13.9427Z" fill="white"/>
<path d="M77.6572 13.9427L75.0857 18.9914L53.4857 18.9914L56.0414 14.1184L77.6572 13.9427Z" fill="white"/>
<path d="M42.1715 4.74253L47.8286 4.74254L45.2572 9.79128L39.6 9.7913L42.1715 4.74253Z" fill="white"/>
<path d="M42.1715 4.74253L47.8286 4.74254L45.2572 9.79128L39.6 9.7913L42.1715 4.74253Z" fill="white"/>
<path d="M40.1143 4.74255L37.7886 9.79686L18.3007 9.84463L20.6263 4.79032L40.1143 4.74255Z" fill="white"/>
<path d="M40.1143 4.74255L37.7886 9.79686L18.3007 9.84463L20.6263 4.79032L40.1143 4.74255Z" fill="white"/>
<path d="M38.5715 12.0815L44.0446 12.0815L22.3714 50.9026L16.9714 50.9025L38.5715 12.0815Z" fill="white"/>
<path d="M38.5715 12.0815L44.0446 12.0815L22.3714 50.9026L16.9714 50.9025L38.5715 12.0815Z" fill="white"/>
<path d="M24.1871 45.6781L21.6 50.9026L-2.05303e-05 50.7905L2.57141 45.7443L24.1871 45.6781Z" fill="white"/>
<path d="M24.1871 45.6781L21.6 50.9026L-2.05303e-05 50.7905L2.57141 45.7443L24.1871 45.6781Z" fill="white"/>
</svg>
